{"title":"Extinction.2015.BRRip.480p.x264.AAC-VYTO [P2PDL]","uid":12918163,"size":430120098,"categoryP":"video","categoryS":"movies","magnet":"?xt=urn:btih:1ccb254a5970d34a661a16e155bd6b22ab3ac253&amp;dn=Extinction.2015.BRRip.480p.x264.AAC-VYTO+%5BP2PDL%5D&amp;tr=udp%3A%2F%2Ftracker.leechers-paradise.org%3A6969&amp;tr=udp%3A%2F%2Fzer0day.ch%3A1337&amp;tr=udp%3A%2F%2Fopen.demonii.com%3A1337&amp;tr=udp%3A%2F%2Ftracker.coppersurfer.tk%3A6969&amp;tr=udp%3A%2F%2Fexodus.desync.com%3A6969","seeders":0,"leechers":1,"uploader":"VYTOP2PDL","files":7,"time":1449382436,"description":"Presenting Small Encodes with quality for years!\r\n                                                                                                   \r\n                                                                                                   \r\n\r\nExtinction.2015.BRRip.480p.x264.AAC-VYTO\r\n\r\n\r\nGenre: Drama, Horror, Sci-Fi   \nhttp://www.imdb.com/title/tt3467412/\r\n\r\n\r\nGeneral\r\nFormat                         : MPEG-4\r\nFile size                      : 402 MiB\r\nDuration                       : 1h 52mn\r\nOverall bit rate               : 497 Kbps\r\n\r\nVideo\r\nFormat                         : AVC\r\nBit rate                       : 462 Kbps\r\nWidth                          : 720 pixels\r\nHeight                         : 304 pixels\r\nDisplay aspect ratio           : 2.35:1\r\nFrame rate mode                : Constant\r\nFrame rate                     : 24.000 fps\r\nBit depth                      : 8 bits\r\nStream size                    : 373 MiB (93%)\r\nWriting library                : x264\r\n\r\nAudio\r\nFormat                         : AAC\r\nBit rate mode                  : Variable\r\nBit rate                       : 32.0 Kbps\r\nChannel(s)                     : 2 channels \r\nChannel positions              : Front: L R\r\nSampling rate                  : 48.0 KHz \r\nStream size                    : 25.8 MiB (6%)\r\nLanguage                       : English\r\n\r\nSubtitle                       : Yes (English)\r\n\r\nScreen Shots:\r\n \nhttp://ititli.com/7M \nhttp://ititli.com/7U \nhttp://ititli.com/7h \nhttp://ititli.com/7s \nhttp://ititli.com/7Y \nhttp://ititli.com/74 \nhttp://ititli.com/7K \nhttp://ititli.com/7V \nhttp://ititli.com/7t\r\n\r\n----------------------------------------------------------------------------------------------------\r\n\r\n\r\nEncoder Notes: Looking For Early Access To Anything You Can Provide WEBDL, DVDScr, DVDR, BluRay,\r\nDirect Audio, Music Releases and Seedboxes. If You Got anything to offer please contact us.\r\n\r\nSupport us by donating BC - 1FgwdzPsd1y25Gea8wP1qni35uGCtmkRCD\r\n\r\nSend some love!\r\nFind us! Join us!","torrent":{"xt":"urn:btih:1ccb254a5970d34a661a16e155bd6b22ab3ac253","amp;dn":"Extinction.2015.BRRip.480p.x264.AAC-VYTO+%5BP2PDL%5D","amp;tr":["udp%3A%2F%2Ftracker.leechers-paradise.org%3A6969","udp%3A%2F%2Fzer0day.ch%3A1337","udp%3A%2F%2Fopen.demonii.com%3A1337","udp%3A%2F%2Ftracker.coppersurfer.tk%3A6969","udp%3A%2F%2Fexodus.desync.com%3A6969"],"infoHash":"1ccb254a5970d34a661a16e155bd6b22ab3ac253","infoHashBuffer":{"type":"Buffer","data":[28,203,37,74,89,112,211,74,102,26,22,225,85,189,107,34,171,58,194,83]},"announce":[],"urlList":[]}}